<svg width="18" height="19" viewBox="0 0 18 19" fill="none" xmlns="http://www.w3.org/2000/svg">
<g opacity="0.7">
<path opacity="0.4" d="M7.4925 13.985C10.8021 13.985 13.485 11.3021 13.485 7.9925C13.485 4.68293 10.8021 2 7.4925 2C4.18293 2 1.5 4.68293 1.5 7.9925C1.5 11.3021 4.18293 13.985 7.4925 13.985Z" fill="#DDFFEF"/>
<path d="M16.4775 12.4925C16.4775 14.9675 14.4675 16.9775 11.9925 16.9775C10.4625 16.9775 9.12 16.2125 8.31 15.05C11.58 14.6825 14.1825 12.08 14.55 8.81C15.7125 9.62 16.4775 10.9625 16.4775 12.4925Z" fill="#DDFFEF"/>
<path d="M8.5875 7.7825L6.7875 7.15249C6.6075 7.09249 6.57 7.0775 6.57 6.815C6.57 6.62 6.705 6.46249 6.8775 6.46249H8.0025C8.2425 6.46249 8.4375 6.68 8.4375 6.95C8.4375 7.2575 8.6925 7.5125 9 7.5125C9.3075 7.5125 9.5625 7.2575 9.5625 6.95C9.5625 6.0875 8.895 5.3825 8.0625 5.345V5.3075C8.0625 5 7.8075 4.745 7.5 4.745C7.1925 4.745 6.9375 4.9925 6.9375 5.3075V5.345H6.87C6.0825 5.345 5.4375 6.005 5.4375 6.8225C5.4375 7.535 5.7525 7.99249 6.405 8.21749L8.2125 8.8475C8.3925 8.9075 8.43 8.92249 8.43 9.18499C8.43 9.37999 8.295 9.5375 8.1225 9.5375H6.9975C6.7575 9.5375 6.5625 9.31999 6.5625 9.04999C6.5625 8.74249 6.3075 8.48749 6 8.48749C5.6925 8.48749 5.4375 8.74249 5.4375 9.04999C5.4375 9.91249 6.105 10.6175 6.9375 10.655V10.7C6.9375 11.0075 7.1925 11.2625 7.5 11.2625C7.8075 11.2625 8.0625 11.0075 8.0625 10.7V10.6625H8.13C8.9175 10.6625 9.5625 10.0025 9.5625 9.18499C9.5625 8.47249 9.24 8.015 8.5875 7.7825Z" fill="#DDFFEF"/>
</g>
</svg>
