<svg width="18" height="19" viewBox="0 0 18 19" fill="none" xmlns="http://www.w3.org/2000/svg">
<g opacity="0.7">
<path d="M15.795 9.36501L15.675 9.20001C15.465 8.94501 15.2175 8.74251 14.9325 8.59251C14.55 8.37501 14.115 8.26251 13.665 8.26251H4.32753C3.87753 8.26251 3.45003 8.37501 3.06003 8.59251C2.76753 8.75001 2.50503 8.96751 2.28753 9.23751C1.86003 9.78501 1.65753 10.46 1.72503 11.135L2.00253 14.6375C2.10003 15.695 2.22753 17 4.60503 17H13.395C15.7725 17 15.8925 15.695 15.9975 14.63L16.275 11.1425C16.3425 10.5125 16.1775 9.88251 15.795 9.36501ZM10.7925 13.505H7.20003C6.90753 13.505 6.67503 13.265 6.67503 12.98C6.67503 12.695 6.90753 12.455 7.20003 12.455H10.7925C11.085 12.455 11.3175 12.695 11.3175 12.98C11.3175 13.2725 11.085 13.505 10.7925 13.505Z" fill="#DDFFEF"/>
<path opacity="0.4" d="M2.53497 8.9825C2.69997 8.8325 2.86497 8.6975 3.05997 8.5925C3.44247 8.375 3.87747 8.2625 4.32747 8.2625H13.6725C14.1225 8.2625 14.55 8.375 14.94 8.5925C15.135 8.6975 15.3075 8.8325 15.465 8.99V8.5925V7.865C15.465 5.1875 14.6475 4.37 11.97 4.37H10.185C9.85497 4.37 9.84747 4.3625 9.65247 4.1075L8.75247 2.9C8.32497 2.345 7.98747 2 6.91497 2H6.02997C3.35247 2 2.53497 2.8175 2.53497 5.495V8.6V8.9825Z" fill="#DDFFEF"/>
</g>
</svg>
