<svg width="16" height="16" viewBox="0 0 16 16" fill="none" xmlns="http://www.w3.org/2000/svg">
<path d="M7.59992 15.1667H5.06659C2.13992 15.1667 0.833252 13.86 0.833252 10.9333V8.39999C0.833252 5.47332 2.13992 4.16666 5.06659 4.16666H7.06659C7.33992 4.16666 7.56659 4.39332 7.56659 4.66666C7.56659 4.93999 7.33992 5.16666 7.06659 5.16666H5.06659C2.67992 5.16666 1.83325 6.01332 1.83325 8.39999V10.9333C1.83325 13.32 2.67992 14.1667 5.06659 14.1667H7.59992C9.98659 14.1667 10.8333 13.32 10.8333 10.9333V8.93332C10.8333 8.65999 11.0599 8.43332 11.3333 8.43332C11.6066 8.43332 11.8333 8.65999 11.8333 8.93332V10.9333C11.8333 13.86 10.5266 15.1667 7.59992 15.1667Z" fill="#D6EDFF"/>
<path d="M11.3333 9.43335H9.19998C7.32665 9.43335 6.56665 8.67335 6.56665 6.80001V4.66668C6.56665 4.46668 6.68665 4.28001 6.87332 4.20668C7.05998 4.12668 7.27332 4.17335 7.41998 4.31335L11.6867 8.58001C11.8267 8.72001 11.8733 8.94001 11.7933 9.12668C11.72 9.31335 11.5333 9.43335 11.3333 9.43335ZM7.56665 5.87335V6.80001C7.56665 8.12668 7.87332 8.43335 9.19998 8.43335H10.1266L7.56665 5.87335Z" fill="#D6EDFF"/>
<path d="M10.4001 1.83334H7.7334C7.46007 1.83334 7.2334 1.60668 7.2334 1.33334C7.2334 1.06001 7.46007 0.833344 7.7334 0.833344H10.4001C10.6734 0.833344 10.9001 1.06001 10.9001 1.33334C10.9001 1.60668 10.6734 1.83334 10.4001 1.83334Z" fill="#D6EDFF"/>
<path d="M4.66675 3.83334C4.39341 3.83334 4.16675 3.60668 4.16675 3.33334C4.16675 1.95334 5.28675 0.833344 6.66675 0.833344H8.41341C8.68675 0.833344 8.91341 1.06001 8.91341 1.33334C8.91341 1.60668 8.68675 1.83334 8.41341 1.83334H6.66675C5.84008 1.83334 5.16675 2.50668 5.16675 3.33334C5.16675 3.60668 4.94008 3.83334 4.66675 3.83334Z" fill="#D6EDFF"/>
<path d="M12.7932 11.8333C12.5199 11.8333 12.2932 11.6067 12.2932 11.3333C12.2932 11.06 12.5199 10.8333 12.7932 10.8333C13.5532 10.8333 14.1665 10.2133 14.1665 9.46001V5.33334C14.1665 5.06001 14.3932 4.83334 14.6665 4.83334C14.9399 4.83334 15.1665 5.06001 15.1665 5.33334V9.46001C15.1665 10.7667 14.0999 11.8333 12.7932 11.8333Z" fill="#D6EDFF"/>
<path d="M14.6667 5.83334H12.6667C10.8934 5.83334 10.1667 5.10667 10.1667 3.33334V1.33334C10.1667 1.13334 10.2867 0.946669 10.4734 0.873336C10.6601 0.793336 10.8734 0.840003 11.0201 0.980003L15.0201 4.98C15.1601 5.12 15.2067 5.34 15.1267 5.52667C15.0534 5.71334 14.8667 5.83334 14.6667 5.83334ZM11.1667 2.54V3.33334C11.1667 4.55334 11.4467 4.83334 12.6667 4.83334H13.4601L11.1667 2.54Z" fill="#D6EDFF"/>
</svg>
