<svg width="20" height="20" viewBox="0 0 20 20" fill="none" xmlns="http://www.w3.org/2000/svg">
<path opacity="0.4" d="M10.0001 18.3333C14.6025 18.3333 18.3334 14.6024 18.3334 9.99999C18.3334 5.39762 14.6025 1.66666 10.0001 1.66666C5.39771 1.66666 1.66675 5.39762 1.66675 9.99999C1.66675 14.6024 5.39771 18.3333 10.0001 18.3333Z" fill="#D6EDFF" fill-opacity="0.6"/>
<path d="M10.65 5.29999C11.2 5.29999 11.6 5.81665 11.4583 6.34999L9.96666 11.9167H12.4917C13.0083 11.9167 13.4083 12.3833 13.3083 12.9L13.1833 13.6C13.1083 14 12.7667 14.2833 12.3667 14.2833H7.74999C7.19999 14.2833 6.79999 13.75 6.94999 13.225L9.12501 5.60832C9.17501 5.43332 9.34166 5.30832 9.52499 5.30832H10.65V5.29999Z" fill="#D6EDFF" fill-opacity="0.6"/>
<path d="M6.10012 11.0584C5.80845 11.0584 5.55011 10.85 5.49177 10.5584C5.42511 10.2167 5.64177 9.8917 5.98344 9.82503L12.4001 8.5417C12.7334 8.47503 13.0668 8.6917 13.1335 9.03337C13.2001 9.37503 12.9835 9.70003 12.6418 9.7667L6.22511 11.05C6.18344 11.0584 6.14178 11.0584 6.10012 11.0584Z" fill="#D6EDFF" fill-opacity="0.6"/>
</svg>
