<svg width="20" height="20" viewBox="0 0 20 20" fill="none" xmlns="http://www.w3.org/2000/svg">
<path opacity="0.4" d="M9.99993 14.4583C10.7501 14.4583 11.3583 13.8502 11.3583 13.1C11.3583 12.3498 10.7501 11.7417 9.99993 11.7417C9.24975 11.7417 8.6416 12.3498 8.6416 13.1C8.6416 13.8502 9.24975 14.4583 9.99993 14.4583Z" fill="#D6EDFF" fill-opacity="0.6"/>
<path d="M13.8751 7.86667H6.12508C2.70841 7.86667 1.66675 8.90834 1.66675 12.325V13.875C1.66675 17.2917 2.70841 18.3333 6.12508 18.3333H13.8751C17.2917 18.3333 18.3334 17.2917 18.3334 13.875V12.325C18.3334 8.90834 17.2917 7.86667 13.8751 7.86667ZM10.0001 15.6167C8.60842 15.6167 7.48341 14.4833 7.48341 13.1C7.48341 11.7167 8.60842 10.5833 10.0001 10.5833C11.3917 10.5833 12.5167 11.7167 12.5167 13.1C12.5167 14.4833 11.3917 15.6167 10.0001 15.6167Z" fill="#D6EDFF" fill-opacity="0.6"/>
<path opacity="0.4" d="M5.93327 7.87499V6.89999C5.93327 4.45832 6.62493 2.83332 9.99993 2.83332C13.3749 2.83332 14.0666 4.45832 14.0666 6.89999V7.87499C14.4916 7.88332 14.8749 7.89999 15.2333 7.94999V6.89999C15.2333 4.64999 14.6916 1.66666 9.99993 1.66666C5.30827 1.66666 4.7666 4.64999 4.7666 6.89999V7.94166C5.1166 7.89999 5.50827 7.87499 5.93327 7.87499Z" fill="#D6EDFF" fill-opacity="0.6"/>
</svg>
