<svg width="20" height="20" viewBox="0 0 20 20" fill="none" xmlns="http://www.w3.org/2000/svg">
<path opacity="0.4" d="M10.0001 18.3417C14.6025 18.3417 18.3334 14.6107 18.3334 10.0083C18.3334 5.40595 14.6025 1.67499 10.0001 1.67499C5.39771 1.67499 1.66675 5.40595 1.66675 10.0083C1.66675 14.6107 5.39771 18.3417 10.0001 18.3417Z" fill="#D6EDFF" fill-opacity="0.6"/>
<path d="M10 5.78333C8.275 5.78333 6.875 7.18332 6.875 8.90832C6.875 10.6 8.2 11.975 9.95833 12.025C9.98333 12.025 10.0167 12.025 10.0333 12.025C10.05 12.025 10.075 12.025 10.0917 12.025C10.1 12.025 10.1083 12.025 10.1083 12.025C11.7917 11.9667 13.1167 10.6 13.125 8.90832C13.125 7.18332 11.725 5.78333 10 5.78333Z" fill="#D6EDFF" fill-opacity="0.6"/>
<path d="M15.6501 16.1333C14.1668 17.5 12.1834 18.3417 10.0001 18.3417C7.81676 18.3417 5.83343 17.5 4.3501 16.1333C4.5501 15.375 5.09176 14.6833 5.88343 14.15C8.15843 12.6333 11.8584 12.6333 14.1168 14.15C14.9168 14.6833 15.4501 15.375 15.6501 16.1333Z" fill="#D6EDFF" fill-opacity="0.6"/>
</svg>
