<svg width="16" height="18" viewBox="0 0 16 18" fill="none" xmlns="http://www.w3.org/2000/svg">
<path opacity="0.4" d="M11.5334 2.04166H4.4667C2.40837 2.04166 0.741699 3.71666 0.741699 5.76666V13.6083C0.741699 15.6583 2.4167 17.3333 4.4667 17.3333H11.525C13.5834 17.3333 15.25 15.6583 15.25 13.6083V5.76666C15.2584 3.70832 13.5834 2.04166 11.5334 2.04166Z" fill="#D6EDFF" fill-opacity="0.6"/>
<path d="M9.95846 0.666656H6.0418C5.17513 0.666656 4.4668 1.36666 4.4668 2.23332V3.01666C4.4668 3.88332 5.1668 4.58332 6.03346 4.58332H9.95846C10.8251 4.58332 11.5251 3.88332 11.5251 3.01666V2.23332C11.5335 1.36666 10.8251 0.666656 9.95846 0.666656Z" fill="#D6EDFF" fill-opacity="0.6"/>
<path d="M7.00842 13.125C6.85008 13.125 6.69175 13.0666 6.56675 12.9416L5.31675 11.6916C5.07508 11.45 5.07508 11.05 5.31675 10.8083C5.55841 10.5666 5.95842 10.5666 6.20008 10.8083L7.00842 11.6166L9.90008 8.72498C10.1417 8.48332 10.5417 8.48332 10.7834 8.72498C11.0251 8.96665 11.0251 9.36665 10.7834 9.60831L7.45008 12.9416C7.33342 13.0666 7.16675 13.125 7.00842 13.125Z" fill="#D6EDFF" fill-opacity="0.6"/>
</svg>
