<svg width="20" height="20" viewBox="0 0 20 20" fill="none" xmlns="http://www.w3.org/2000/svg">
<path d="M4.16658 12.5C3.38325 12.5 2.65825 12.775 2.08325 13.2333C1.31659 13.8417 0.833252 14.7833 0.833252 15.8333C0.833252 16.4583 1.00825 17.05 1.31659 17.55C1.89159 18.5167 2.94992 19.1667 4.16658 19.1667C5.00825 19.1667 5.77492 18.8583 6.35826 18.3333C6.61659 18.1167 6.84158 17.85 7.01658 17.55C7.32492 17.05 7.49992 16.4583 7.49992 15.8333C7.49992 13.9917 6.00825 12.5 4.16658 12.5ZM5.89159 15.475L4.11659 17.1166C3.99992 17.225 3.84158 17.2833 3.69158 17.2833C3.53325 17.2833 3.37491 17.225 3.24991 17.1L2.42492 16.275C2.18325 16.0334 2.18325 15.6333 2.42492 15.3916C2.66659 15.15 3.06659 15.15 3.30825 15.3916L3.70825 15.7917L5.04159 14.5583C5.29159 14.325 5.69159 14.3417 5.92492 14.5917C6.15825 14.8417 6.14159 15.2417 5.89159 15.475Z" fill="#D6EDFF" fill-opacity="0.6"/>
<path opacity="0.4" d="M16.2332 10.7917H17.9166V9.59168C17.9166 7.86669 16.5083 6.45834 14.7833 6.45834H5.21658C3.49158 6.45834 2.08325 7.86669 2.08325 9.59168V13.2333C2.65825 12.775 3.38325 12.5 4.16659 12.5C6.00825 12.5 7.49992 13.9917 7.49992 15.8333C7.49992 16.4583 7.32492 17.05 7.01658 17.55C6.84158 17.85 6.61659 18.1167 6.35826 18.3333H14.7833C16.5083 18.3333 17.9166 16.925 17.9166 15.2V14.2083H16.3333C15.4333 14.2083 14.6083 13.55 14.5333 12.65C14.4833 12.125 14.6832 11.6333 15.0332 11.2917C15.3416 10.975 15.7666 10.7917 16.2332 10.7917Z" fill="#D6EDFF" fill-opacity="0.6"/>
<path d="M12.3749 3.29168V6.45833H5.21658C3.49158 6.45833 2.08325 7.86667 2.08325 9.59167V6.53336C2.08325 5.54169 2.69158 4.65832 3.61658 4.30832L10.2333 1.80832C11.2666 1.42499 12.3749 2.18334 12.3749 3.29168Z" fill="#D6EDFF" fill-opacity="0.6"/>
<path d="M18.7999 11.6417V13.3584C18.7999 13.8167 18.4332 14.1917 17.9666 14.2083H16.3332C15.4332 14.2083 14.6082 13.55 14.5332 12.65C14.4832 12.125 14.6832 11.6333 15.0332 11.2917C15.3416 10.975 15.7666 10.7917 16.2332 10.7917H17.9666C18.4332 10.8084 18.7999 11.1833 18.7999 11.6417Z" fill="#D6EDFF" fill-opacity="0.6"/>
<path d="M11.6666 10.625H5.83325C5.49159 10.625 5.20825 10.3417 5.20825 10C5.20825 9.65833 5.49159 9.375 5.83325 9.375H11.6666C12.0083 9.375 12.2916 9.65833 12.2916 10C12.2916 10.3417 12.0083 10.625 11.6666 10.625Z" fill="#D6EDFF" fill-opacity="0.6"/>
</svg>
