<svg width="110" height="22" viewBox="0 0 110 22" fill="none" xmlns="http://www.w3.org/2000/svg">
<g opacity="0.5" clip-path="url(#clip0_1_143)">
<path d="M6.64354 9.24458L10.923 4.97233L15.2047 9.24684L17.6948 6.76085L10.923 0L4.15345 6.75859L6.64354 9.24458Z" fill="#DDFFEF"/>
<path d="M4.88506 10.9996L2.39501 8.51367L-0.0951552 10.9997L2.39489 13.4857L4.88506 10.9996Z" fill="#DDFFEF"/>
<path d="M6.64354 12.7554L10.923 17.0277L15.2046 12.7533L17.696 15.2379L17.6948 15.2393L10.923 22L4.15328 15.2416L4.1498 15.2381L6.64354 12.7554Z" fill="#DDFFEF"/>
<path d="M19.4512 13.4869L21.9414 11.0008L19.4514 8.51484L16.9612 11.0009L19.4512 13.4869Z" fill="#DDFFEF"/>
<path d="M13.4488 10.9987H13.4498L10.923 8.47604L9.05565 10.3403H9.05548L8.84106 10.5546L8.39845 10.9964L8.39497 10.9999L8.39845 11.0036L10.923 13.524L13.4498 11.0013L13.451 10.9999L13.4488 10.9987Z" fill="#DDFFEF"/>
<path d="M25.8233 5.33081H31.2391C32.5833 5.33081 33.5997 5.6752 34.2886 6.36399C34.8217 6.89744 35.0882 7.5586 35.0882 8.34729V8.38066C35.0882 8.71393 35.0469 9.00845 34.9639 9.26388C34.8811 9.51966 34.7704 9.74989 34.632 9.95545C34.494 10.1612 34.3335 10.3417 34.1511 10.4971C33.9685 10.6527 33.7724 10.7862 33.5623 10.8971C34.238 11.1528 34.7698 11.4998 35.1576 11.9388C35.5452 12.3778 35.7393 12.9862 35.7393 13.7638V13.7969C35.7393 14.3304 35.6366 14.7969 35.4311 15.1971C35.2255 15.5969 34.931 15.9304 34.5476 16.1971C34.1642 16.4638 33.7031 16.6636 33.1643 16.7971C32.6254 16.9304 32.0283 16.9969 31.373 16.9969H25.8233V5.33081ZM30.6977 10.0472C31.2654 10.0472 31.7162 9.95024 32.0498 9.75562C32.3837 9.56119 32.5506 9.2472 32.5506 8.81401V8.78065C32.5506 8.39195 32.4058 8.09482 32.1165 7.88909C31.8271 7.68353 31.4097 7.58066 30.8646 7.58066H28.3272V10.0472H30.6977ZM31.3822 14.7472C31.9498 14.7472 32.3946 14.6447 32.7177 14.439C33.0403 14.2334 33.2019 13.9139 33.2019 13.4805V13.4473C33.2019 13.0585 33.0515 12.7502 32.7511 12.5222C32.4505 12.2948 31.9665 12.1808 31.2987 12.1808H28.3272V14.7474L31.3822 14.7472Z" fill="#DDFFEF"/>
<path d="M38.9647 5.33081H41.5357V16.9973H38.9647V5.33081Z" fill="#DDFFEF"/>
<path d="M45.4297 5.33081H47.7999L53.2755 12.5141V5.33081H55.813V16.9973H53.6263L47.9669 9.58082V16.9973H45.4297V5.33081Z" fill="#DDFFEF"/>
<path d="M63.5963 5.24756H65.9667L70.9751 16.9972H68.2873L67.2188 14.3808H62.2774L61.2091 16.9972H58.5878L63.5963 5.24756ZM66.3007 12.1139L64.748 8.33077L63.1959 12.1139H66.3007Z" fill="#DDFFEF"/>
<path d="M73.7502 5.33081H76.1209L81.5963 12.5141V5.33081H84.1337V16.9973H81.947L76.2877 9.58082V16.9973H73.7502V5.33081Z" fill="#DDFFEF"/>
<path d="M93.386 17.1971C92.5287 17.1971 91.7333 17.0414 90.9986 16.7305C90.264 16.4197 89.6297 15.9945 89.0956 15.4555C88.5613 14.9166 88.1437 14.2805 87.8437 13.5472C87.5431 12.8138 87.3929 12.0305 87.3929 11.1971V11.1639C87.3929 10.3306 87.5431 9.55022 87.8437 8.82234C88.1439 8.09463 88.5613 7.45571 89.0956 6.90576C89.6296 6.35581 90.2697 5.92228 91.0151 5.60569C91.7606 5.28909 92.5847 5.1308 93.4861 5.1308C94.031 5.1308 94.529 5.17545 94.9798 5.26407C95.4305 5.35321 95.8394 5.47519 96.207 5.63071C96.5744 5.7864 96.9134 5.97527 97.2255 6.19734C97.5365 6.41975 97.8261 6.66406 98.0933 6.93078L96.4576 8.814C96.0007 8.40306 95.5364 8.08056 95.0635 7.84737C94.5902 7.61418 94.059 7.49742 93.4692 7.49742C92.9794 7.49742 92.5259 7.59194 92.1089 7.78082C91.6915 7.9697 91.3324 8.23069 91.0319 8.56396C90.7316 8.89723 90.4979 9.2835 90.3306 9.72225C90.1641 10.1613 90.0807 10.6307 90.0807 11.1306V11.1638C90.0807 11.6637 90.1641 12.1361 90.3306 12.5803C90.4979 13.0249 90.7283 13.4136 91.0237 13.7469C91.3183 14.0802 91.6746 14.3443 92.0918 14.5387C92.5095 14.7333 92.9685 14.8303 93.4692 14.8303C94.1372 14.8303 94.7015 14.7081 95.1634 14.4637C95.6253 14.2195 96.0846 13.8861 96.5408 13.4637L98.1768 15.1137C97.8762 15.436 97.5642 15.725 97.242 15.9802C96.9192 16.236 96.5658 16.4553 96.1817 16.6388C95.798 16.8219 95.3775 16.9611 94.9216 17.0553C94.4649 17.1496 93.9532 17.1971 93.386 17.1971Z" fill="#DDFFEF"/>
<path d="M101.202 5.33081H110V7.6142H103.74V9.98082H109.249V12.264H103.74V14.7141H110.084V16.9973H101.202V5.33081Z" fill="#DDFFEF"/>
</g>
<defs>
<clipPath id="clip0_1_143">
<rect width="110" height="22" fill="white"/>
</clipPath>
</defs>
</svg>
