<svg width="108" height="22" viewBox="0 0 108 22" fill="none" xmlns="http://www.w3.org/2000/svg">
<g opacity="0.5">
<path d="M31.1922 17.1547C33.9702 17.1547 35.8115 15.744 35.8115 13.6199C35.8115 11.6255 34.5678 10.685 32.4197 10.2959L30.7723 10.004C29.7063 9.82564 29.1572 9.37163 29.1572 8.64197C29.1572 7.83124 29.9163 7.29615 31.0307 7.29615C32.2582 7.29615 33.0496 7.91231 33.0496 8.85276H35.6177C35.6177 6.77728 33.7118 5.28554 31.0307 5.28554C28.2689 5.28554 26.4276 6.69621 26.4276 8.80412C26.4276 10.9282 27.6228 11.8525 29.884 12.2416L31.5637 12.5173C32.6781 12.7119 33.1304 13.0848 33.1304 13.8145C33.1304 14.5765 32.3551 15.0954 31.1922 15.0954C29.6902 15.0954 28.6888 14.3658 28.6888 13.2794H26.1692C26.1692 15.5494 28.2365 17.1547 31.1922 17.1547Z" fill="#DDFFEF"/>
<path d="M41.406 17.1547C44.071 17.1547 45.8476 15.4521 45.8476 12.9064C45.8476 10.3445 44.071 8.64197 41.406 8.64197C38.741 8.64197 36.9644 10.3445 36.9644 12.9064C36.9644 15.4521 38.741 17.1547 41.406 17.1547ZM41.406 15.1441C40.13 15.1441 39.274 14.2523 39.274 12.9064C39.274 11.5606 40.13 10.6526 41.406 10.6526C42.6819 10.6526 43.538 11.5606 43.538 12.9064C43.538 14.2523 42.6819 15.1441 41.406 15.1441Z" fill="#DDFFEF"/>
<path d="M49.6097 17.1547C50.0942 17.1547 50.4657 17.0898 51.0149 16.9277V14.9171C50.7241 15.0143 50.4496 15.063 50.2396 15.063C49.8197 15.063 49.5935 14.8846 49.5935 14.4468V5.30175H47.1709V15.1116C47.1709 16.4088 48.0753 17.1547 49.6097 17.1547Z" fill="#DDFFEF"/>
<path d="M53.2642 7.58802C54.0717 7.58802 54.7016 7.00429 54.7016 6.2422C54.7016 5.48011 54.0717 4.9126 53.2642 4.9126C52.4566 4.9126 51.8267 5.48011 51.8267 6.2422C51.8267 7.00429 52.4566 7.58802 53.2642 7.58802ZM55.1216 15.063C54.7016 15.063 54.4755 14.8846 54.4755 14.4468V8.91762H52.0528V15.1116C52.0528 16.4088 52.9573 17.1547 54.4917 17.1547C54.9762 17.1547 55.3477 17.0898 55.8968 16.9277V14.9171C55.6061 15.0143 55.3315 15.063 55.1216 15.063Z" fill="#DDFFEF"/>
<path d="M65.9514 15.063C65.5153 15.063 65.3053 14.8522 65.3053 14.4144V5.30175H62.8665V9.48514C62.2043 8.91762 61.3806 8.64197 60.5407 8.64197C58.0695 8.64197 56.3737 10.3932 56.3737 12.9064C56.3737 15.4197 58.0695 17.1547 60.5407 17.1547C61.5098 17.1547 62.5919 16.798 63.2864 16.1169C63.6417 16.798 64.4008 17.1547 65.3215 17.1547C65.7898 17.1547 66.2098 17.0736 66.7105 16.9277V14.9171C66.5005 14.9819 66.1936 15.063 65.9514 15.063ZM60.8314 15.2576C59.5878 15.2576 58.7479 14.3171 58.7479 12.9064C58.7479 11.4958 59.5878 10.5553 60.8314 10.5553C62.0589 10.5553 62.8665 11.4795 62.8665 12.9064C62.8665 14.3171 62.0589 15.2576 60.8314 15.2576Z" fill="#DDFFEF"/>
<path d="M67.7957 16.8952H70.3315V12.3551H75.5645V16.8952H78.1002V5.54497H75.5645V10.1986H70.3315V5.54497H67.7957V16.8952Z" fill="#DDFFEF"/>
<path d="M88.1065 15.063C87.6704 15.063 87.4604 14.8522 87.4604 14.3982V11.6093C87.4604 9.84186 85.9906 8.64197 83.6487 8.64197C81.436 8.64197 79.9016 9.90672 79.9016 11.6903H82.1466C82.1466 10.9607 82.7119 10.4904 83.6164 10.4904C84.4724 10.4904 85.0539 10.8634 85.0539 11.3985C85.0539 11.7714 84.8116 11.9984 84.3271 12.0633L82.3243 12.3389C80.3377 12.6308 79.4655 13.5712 79.4655 14.7711C79.4655 16.1818 80.7738 17.1547 82.6958 17.1547C83.7618 17.1547 84.7308 16.8466 85.4576 16.1818C85.813 16.7817 86.5075 17.1547 87.4927 17.1547C87.9611 17.1547 88.3326 17.0898 88.8656 16.9277V14.9171C88.5425 15.0306 88.3487 15.063 88.1065 15.063ZM85.0539 13.6361C85.0539 14.69 84.2625 15.3711 82.9542 15.3711C82.2274 15.3711 81.759 15.0306 81.759 14.5441C81.759 14.0901 82.1305 13.782 82.8411 13.6847L85.0539 13.3929V13.6361Z" fill="#DDFFEF"/>
<path d="M93.2357 17.1547C95.4646 17.1547 96.9505 16.1494 96.9505 14.6252C96.9505 13.0686 95.9007 12.2741 94.3017 12.0633L93.2034 11.9173C92.4443 11.82 91.8629 11.6255 91.8629 11.0904C91.8629 10.6202 92.3313 10.3121 93.0419 10.3121C93.9141 10.3121 94.5117 10.7337 94.5117 11.3985H96.6921C96.6921 9.80943 95.1577 8.64197 93.0258 8.64197C90.9261 8.64197 89.5209 9.6635 89.5209 11.1877C89.5209 12.9226 90.8776 13.4577 92.1051 13.6523L93.2196 13.8145C93.9787 13.928 94.544 14.1063 94.544 14.6414C94.544 15.0954 93.9787 15.4197 93.1873 15.4197C92.1859 15.4197 91.4914 14.9333 91.4914 14.2685H89.3433C89.3433 16.0034 90.8938 17.1547 93.2357 17.1547Z" fill="#DDFFEF"/>
<path d="M107.225 15.063C106.805 15.063 106.595 14.8846 106.595 14.4468V12.2254C106.595 10.0851 105.19 8.64197 103.09 8.64197C102.137 8.64197 101.313 8.90141 100.667 9.48514V5.30175H98.2448V16.8952H100.667V12.4686C100.667 11.4147 101.378 10.7337 102.46 10.7337C103.494 10.7337 104.156 11.4471 104.156 12.5497V15.1116C104.156 16.4088 105.077 17.1547 106.595 17.1547C107.079 17.1547 107.467 17.0898 108 16.9277V14.9171C107.726 15.0143 107.451 15.063 107.225 15.063Z" fill="#DDFFEF"/>
<path d="M8.08646 1.15234C8.79795 0.448994 9.78175 0.0285133 10.7838 0.00271112C11.8299 -0.03647 12.8866 0.350563 13.6508 1.06442C14.2453 1.63303 14.8082 2.23221 15.4075 2.79604C14.3354 5.29407 13.203 7.76917 12.1061 10.2567C10.895 9.06597 9.69833 7.85996 8.49398 6.6635C8.01934 6.18377 7.54566 5.66868 6.90417 5.41257C5.76791 4.90226 4.37946 5.09148 3.39853 5.8493C3.45031 5.77954 3.50592 5.7136 3.56537 5.65148C5.07656 4.15687 6.5772 2.64983 8.08646 1.15234Z" fill="#DDFFEF"/>
<path d="M9.82369 11.736C11.0463 12.9086 12.2247 14.127 13.4339 15.3139C13.943 15.8405 14.4723 16.3909 15.1838 16.6356C16.3239 17.079 17.674 16.8429 18.6147 16.0698C17.0661 17.6371 15.4926 19.1814 13.9363 20.7419C13.5297 21.1615 13.0388 21.5045 12.4913 21.7167C11.0913 22.2853 9.38069 21.9824 8.27703 20.9484C7.67582 20.3778 7.11008 19.7691 6.50311 19.2034C7.57801 16.7015 8.72195 14.2274 9.82369 11.736Z" fill="#DDFFEF"/>
<path d="M3.39846 5.84928C4.37939 5.09146 5.76784 4.90225 6.9041 5.41256C7.54559 5.66867 8.01927 6.18376 8.49391 6.66349C7.00574 10.014 5.5099 13.3615 4.01501 16.7101C3.036 15.7306 2.0522 14.7568 1.07415 13.7763C0.351157 13.0519 -0.0237633 12.0198 0.0011674 11.004C0.019386 9.77695 0.584163 8.59005 1.46825 7.74622C2.11548 7.11741 2.73012 6.45516 3.39846 5.84928Z" fill="url(#paint0_linear_1_157)"/>
<path d="M13.4341 15.3139C14.9165 11.9702 16.4027 8.62735 17.9053 5.29218C18.8805 6.27839 19.871 7.24932 20.849 8.23267C21.5231 8.91308 21.8942 9.86299 21.9124 10.8138C21.9469 12.0743 21.4004 13.3167 20.5048 14.1958C19.8729 14.8189 19.2535 15.4544 18.6148 16.0698C17.6742 16.843 16.3241 17.079 15.184 16.6356C14.4725 16.3909 13.9432 15.8405 13.4341 15.3139Z" fill="url(#paint1_linear_1_157)"/>
</g>
<defs>
<linearGradient id="paint0_linear_1_157" x1="8.48604" y1="1.43344" x2="2.05" y2="14.3884" gradientUnits="userSpaceOnUse">
<stop stop-color="#748C81"/>
<stop offset="1" stop-color="#C4EBD8"/>
</linearGradient>
<linearGradient id="paint1_linear_1_157" x1="20.3521" y1="7.63317" x2="12.2278" y2="19.8071" gradientUnits="userSpaceOnUse">
<stop stop-color="#DDFFEF"/>
<stop offset="1" stop-color="#788F85"/>
</linearGradient>
</defs>
</svg>
