<svg width="20" height="20" viewBox="0 0 20 20" fill="none" xmlns="http://www.w3.org/2000/svg">
<path opacity="0.4" d="M13.4917 1.66666H6.51671C3.48338 1.66666 1.67505 3.47499 1.67505 6.50832V13.4833C1.67505 16.5167 3.48338 18.325 6.51671 18.325H13.4917C16.525 18.325 18.3334 16.5167 18.3334 13.4833V6.50832C18.3334 3.47499 16.525 1.66666 13.4917 1.66666Z" fill="#D6EDFF" fill-opacity="0.8"/>
<path d="M11.6001 7.73328L11.6417 10.1916L13.8334 10.1583C13.9917 10.1583 14.1084 10.3 14.0834 10.45L13.7917 12.0416C13.7667 12.1583 13.6667 12.2416 13.5501 12.2499L11.6751 12.2833L11.7751 18.3249L9.27506 18.3666L9.17506 12.325L7.75839 12.35C7.61672 12.35 7.5084 12.2416 7.5084 12.0999L7.4834 10.5166C7.4834 10.375 7.59172 10.2666 7.73339 10.2666L9.15007 10.2416L9.10838 7.53329C9.08338 6.14995 10.1834 5.01662 11.5667 4.99162L13.8167 4.95828C13.9584 4.95828 14.0667 5.06662 14.0667 5.20829L14.1001 7.20829C14.1001 7.34995 13.9917 7.45828 13.8501 7.45828L11.8501 7.49162C11.7084 7.48328 11.6001 7.59995 11.6001 7.73328Z" fill="#D6EDFF" fill-opacity="0.8"/>
</svg>
