<svg width="82" height="82" viewBox="0 0 82 82" fill="none" xmlns="http://www.w3.org/2000/svg">
<rect width="76" height="76" rx="10" fill="#94EABF"/>
<g filter="url(#filter0_d_9_247)">
<path d="M37.5737 30.6855C38.4014 30.0342 38.8153 29.7086 39.2837 29.5162C39.6985 29.3458 40.143 29.2525 40.5937 29.2412C41.1027 29.2283 41.62 29.3587 42.6547 29.6195C46.126 30.4943 49.5977 31.3683 53.0693 32.2424C56.6769 33.1508 58.4807 33.605 59.2465 34.5716C59.9128 35.4127 60.1589 36.4993 59.9168 37.5316C59.6386 38.7179 58.1951 39.8557 55.308 42.1313C51.2585 45.323 47.2088 48.5145 43.1574 51.7039C42.3298 52.3554 41.916 52.6811 41.4478 52.8736C41.0332 53.0441 40.5889 53.1375 40.1383 53.1491C39.6294 53.1621 39.1124 53.0321 38.0782 52.772C34.6042 51.8984 31.1302 51.0243 27.6567 50.1492C24.0508 49.2408 22.2479 48.7865 21.4823 47.82C20.8161 46.979 20.5701 45.8925 20.8121 44.8603C21.0903 43.6741 22.5339 42.5361 25.421 40.2601C29.471 37.0674 33.5207 33.8745 37.5737 30.6855Z" fill="#144D39" fill-opacity="0.6"/>
</g>
<g filter="url(#filter1_d_9_247)">
<path d="M23.7081 49.0328C22.8836 48.7598 22.4713 48.6233 21.9525 48.1923C21.5709 47.8753 21.1061 47.2317 20.9274 46.7727C20.6844 46.1488 20.6901 45.606 20.7014 44.5206C20.7591 38.9979 20.9471 31.9469 21.1937 26.2742C21.2926 23.9983 21.3421 22.8604 22.1996 21.9065C22.874 21.1563 24.142 20.6358 25.1537 20.6939C26.4401 20.7677 27.3066 21.5569 29.0395 23.1352C29.8808 23.9014 30.8717 24.8003 32.0447 25.8595C32.7038 26.4547 33.0334 26.7523 33.2679 27.095C33.4796 27.4043 33.6322 27.7269 33.7367 28.0859C33.8524 28.4837 33.8726 28.9303 33.9129 29.8234C34.0936 33.8265 34.3861 37.9809 34.5984 42.0582C34.82 46.3145 34.9308 48.4426 34.387 49.3619C33.854 50.2629 33.2456 50.7289 32.2268 51.0164C31.1872 51.3097 29.0096 50.6504 24.6544 49.3319C24.3332 49.2346 24.0171 49.1351 23.7081 49.0328Z" fill="#144D39" fill-opacity="0.78"/>
</g>
<defs>
<filter id="filter0_d_9_247" x="4.00095" y="19.686" width="77.504" height="62.1268" filterUnits="userSpaceOnUse" color-interpolation-filters="sRGB">
<feFlood flood-opacity="0" result="BackgroundImageFix"/>
<feColorMatrix in="SourceAlpha" type="matrix" values="0 0 0 0 0 0 0 0 0 0 0 0 0 0 0 0 0 0 127 0" result="hardAlpha"/>
<feOffset dx="2.38857" dy="9.55429"/>
<feGaussianBlur stdDeviation="9.55429"/>
<feColorMatrix type="matrix" values="0 0 0 0 0.0784314 0 0 0 0 0.301961 0 0 0 0 0.223529 0 0 0 0.7 0"/>
<feBlend mode="normal" in2="BackgroundImageFix" result="effect1_dropShadow_9_247"/>
<feBlend mode="normal" in="SourceGraphic" in2="effect1_dropShadow_9_247" result="shape"/>
</filter>
<filter id="filter1_d_9_247" x="9.94869" y="14.718" width="35.5809" height="51.8929" filterUnits="userSpaceOnUse" color-interpolation-filters="sRGB">
<feFlood flood-opacity="0" result="BackgroundImageFix"/>
<feColorMatrix in="SourceAlpha" type="matrix" values="0 0 0 0 0 0 0 0 0 0 0 0 0 0 0 0 0 0 127 0" result="hardAlpha"/>
<feOffset dy="4.77714"/>
<feGaussianBlur stdDeviation="5.37429"/>
<feColorMatrix type="matrix" values="0 0 0 0 0.0784314 0 0 0 0 0.301961 0 0 0 0 0.223529 0 0 0 0.7 0"/>
<feBlend mode="normal" in2="BackgroundImageFix" result="effect1_dropShadow_9_247"/>
<feBlend mode="normal" in="SourceGraphic" in2="effect1_dropShadow_9_247" result="shape"/>
</filter>
</defs>
</svg>
