<svg width="20" height="20" viewBox="0 0 20 20" fill="none" xmlns="http://www.w3.org/2000/svg">
<path opacity="0.4" d="M6.37505 17.425C6.35005 17.425 6.31672 17.4417 6.29172 17.4417C4.67505 16.6417 3.35838 15.3167 2.55005 13.7C2.55005 13.675 2.56672 13.6417 2.56672 13.6167C3.58338 13.9167 4.63338 14.1417 5.67505 14.3167C5.85838 15.3667 6.07505 16.4083 6.37505 17.425Z" fill="#D6EDFF" fill-opacity="0.8"/>
<path opacity="0.4" d="M17.45 13.7083C16.625 15.3667 15.25 16.7083 13.575 17.5167C13.8916 16.4583 14.1583 15.3917 14.3333 14.3167C15.3833 14.1417 16.4166 13.9167 17.4333 13.6167C17.425 13.65 17.45 13.6833 17.45 13.7083Z" fill="#D6EDFF" fill-opacity="0.8"/>
<path opacity="0.4" d="M17.5166 6.425C16.4666 6.10834 15.4083 5.85 14.3333 5.66667C14.1583 4.59167 13.9 3.525 13.575 2.48334C15.3 3.30834 16.6916 4.7 17.5166 6.425Z" fill="#D6EDFF" fill-opacity="0.8"/>
<path opacity="0.4" d="M6.37507 2.57499C6.07507 3.59165 5.8584 4.62499 5.6834 5.67499C4.6084 5.84165 3.54173 6.10832 2.4834 6.42499C3.29173 4.74999 4.6334 3.37499 6.29173 2.54999C6.31673 2.54999 6.35006 2.57499 6.37507 2.57499Z" fill="#D6EDFF" fill-opacity="0.8"/>
<path d="M12.9082 5.49166C10.9749 5.27499 9.02489 5.27499 7.09155 5.49166C7.29989 4.34999 7.56655 3.20832 7.94155 2.10832C7.95822 2.04166 7.94989 1.99166 7.95822 1.92499C8.61655 1.76666 9.29155 1.66666 9.99989 1.66666C10.6999 1.66666 11.3832 1.76666 12.0332 1.92499C12.0416 1.99166 12.0416 2.04166 12.0582 2.10832C12.4332 3.21666 12.6999 4.34999 12.9082 5.49166Z" fill="#D6EDFF" fill-opacity="0.8"/>
<path d="M5.49175 12.9083C4.34175 12.7 3.20841 12.4333 2.10841 12.0583C2.04175 12.0417 1.99175 12.05 1.92508 12.0417C1.76675 11.3833 1.66675 10.7083 1.66675 10C1.66675 9.30001 1.76675 8.61667 1.92508 7.96667C1.99175 7.95834 2.04175 7.95834 2.10841 7.94167C3.21675 7.57501 4.34175 7.30001 5.49175 7.09167C5.28342 9.02501 5.28342 10.975 5.49175 12.9083Z" fill="#D6EDFF" fill-opacity="0.8"/>
<path d="M18.3333 10C18.3333 10.7083 18.2333 11.3833 18.075 12.0417C18.0083 12.05 17.9583 12.0417 17.8916 12.0583C16.7833 12.425 15.65 12.7 14.5083 12.9083C14.725 10.975 14.725 9.02501 14.5083 7.09167C15.65 7.30001 16.7916 7.56667 17.8916 7.94167C17.9583 7.95834 18.0083 7.96667 18.075 7.96667C18.2333 8.62501 18.3333 9.30001 18.3333 10Z" fill="#D6EDFF" fill-opacity="0.8"/>
<path d="M12.9082 14.5083C12.6999 15.6583 12.4332 16.7917 12.0582 17.8917C12.0416 17.9583 12.0416 18.0083 12.0332 18.075C11.3832 18.2333 10.6999 18.3333 9.99989 18.3333C9.29155 18.3333 8.61655 18.2333 7.95822 18.075C7.94989 18.0083 7.95822 17.9583 7.94155 17.8917C7.57489 16.7833 7.29989 15.6583 7.09155 14.5083C8.05822 14.6167 9.02489 14.6917 9.99989 14.6917C10.9749 14.6917 11.9499 14.6167 12.9082 14.5083Z" fill="#D6EDFF" fill-opacity="0.8"/>
<path d="M13.1362 13.1361C11.0519 13.3991 8.94822 13.3991 6.86397 13.1361C6.60101 11.0519 6.60101 8.94813 6.86397 6.86388C8.94822 6.60092 11.0519 6.60092 13.1362 6.86388C13.3992 8.94813 13.3992 11.0519 13.1362 13.1361Z" fill="#D6EDFF" fill-opacity="0.8"/>
</svg>
