<svg width="20" height="20" viewBox="0 0 20 20" fill="none" xmlns="http://www.w3.org/2000/svg">
<path opacity="0.4" d="M5.78342 17.1916C7.02509 17.9166 8.46675 18.3333 10.0001 18.3333C14.6918 18.3333 18.5917 14.1916 18.3167 9.5083C18.0334 4.67497 13.6417 0.949968 8.58341 1.7833C5.10008 2.3583 2.30841 5.1833 1.76675 8.66664C1.45008 10.6833 1.86677 12.5916 2.7751 14.1666L2.03342 16.925C1.86675 17.55 2.44174 18.1166 3.0584 17.9416L5.78342 17.1916Z" fill="#D6EDFF" fill-opacity="0.8"/>
<path d="M14.1666 12.6416C14.1666 12.7916 14.1332 12.95 14.0582 13.1C13.9832 13.25 13.8916 13.3917 13.7749 13.525C13.5666 13.75 13.3416 13.9166 13.0916 14.0166C12.8416 14.125 12.5666 14.175 12.2749 14.175C11.8499 14.175 11.3916 14.075 10.9166 13.8666C10.4332 13.6583 9.95826 13.3833 9.48326 13.0416C8.99992 12.6916 8.54991 12.3 8.11658 11.875C7.68324 11.4416 7.29994 10.9833 6.94994 10.5083C6.60827 10.0333 6.33324 9.55832 6.13324 9.08332C5.93324 8.60832 5.83325 8.14998 5.83325 7.71665C5.83325 7.43332 5.88325 7.15832 5.98325 6.90832C6.08325 6.64998 6.24159 6.41665 6.46659 6.20831C6.73326 5.94165 7.02491 5.81665 7.33324 5.81665C7.44991 5.81665 7.5666 5.84165 7.67494 5.89165C7.78327 5.94165 7.88324 6.01665 7.95824 6.12498L8.9166 7.49998C8.9916 7.60831 9.04994 7.69998 9.08327 7.79165C9.12494 7.88331 9.14156 7.96665 9.14156 8.04998C9.14156 8.14998 9.10824 8.24998 9.04991 8.34998C8.99157 8.44998 8.9166 8.54998 8.8166 8.64998L8.49993 8.98331C8.44993 9.03331 8.43325 9.08332 8.43325 9.14998C8.43325 9.18332 8.4416 9.21665 8.44993 9.24998C8.4666 9.28331 8.47491 9.30831 8.48325 9.33331C8.55825 9.47498 8.69161 9.64998 8.87494 9.86664C9.06661 10.0833 9.26659 10.3083 9.48326 10.525C9.70826 10.75 9.92491 10.95 10.1499 11.1417C10.3666 11.325 10.5499 11.45 10.6916 11.525C10.7166 11.5333 10.7416 11.55 10.7666 11.5583C10.7999 11.575 10.8332 11.575 10.8749 11.575C10.9499 11.575 10.9999 11.55 11.0499 11.5L11.3666 11.1833C11.4749 11.075 11.5749 11 11.6666 10.95C11.7666 10.8916 11.8582 10.8583 11.9666 10.8583C12.0499 10.8583 12.1332 10.875 12.2249 10.9166C12.3166 10.9583 12.4166 11.0083 12.5166 11.0833L13.8999 12.0667C14.0082 12.1417 14.0833 12.2333 14.1333 12.3333C14.1416 12.425 14.1666 12.525 14.1666 12.6416Z" fill="#D6EDFF" fill-opacity="0.8"/>
</svg>
